<svg width="3947" height="277" xmlns="http://www.w3.org/2000/svg">
 <title>wat</title>

 <g>
  <title>Layer 1</title>
  <rect stroke="#000" id="svg_1" height="365.1515" width="4081.91808" y="-27.9956" x="-63.35435" fill="#000000"/>
  <rect stroke="null" id="svg_3" height="111.32076" width="24.52831" y="112.14176" x="151.74457" fill="#007f00"/>
  <path transform="rotate(11 167.52 87.3336)" fill="#540202" stroke-width="2" d="m150.87206,87.33406l16.64818,-11.49153l16.64818,11.49153l-16.64818,11.49153l-16.64818,-11.49153z" id="svg_64" stroke="#540202"/>
  <path transform="rotate(11 135.084 80.6876)" fill="#bf0000" stroke-width="2" d="m118.43661,80.68732l16.64818,-11.49153l16.64818,11.49153l-16.64818,11.49153l-16.64818,-11.49153z" id="svg_65" stroke="#bf0000"/>
  <path transform="rotate(11 149.004 95.7666)" fill="#7f0000" stroke-width="2" d="m132.3563,95.76695l16.64818,-11.49153l16.64818,11.49153l-16.64818,11.49153l-16.64818,-11.49153z" id="svg_80" stroke="#7f0000"/>
  <line fill="none" stroke-width="2" x1="176.45825" y1="224.28132" x2="176.45825" y2="114.81485" id="svg_60" stroke="#007f00"/>
  <path fill="#5fbf00" d="m1300.61223,995.36708l0.36183,-0.36183l0.38437,0.38437l0.38437,-0.38437l0.36184,0.36183l-0.38437,0.38437l0.38437,0.38437l-0.36184,0.36184l-0.38437,-0.38437l-0.38437,0.38437l-0.36183,-0.36184l0.38437,-0.38437l-0.38437,-0.38437z" id="svg_18"/>
  <path fill="#5fbf00" d="m1427.11945,1070.83459l0.49357,0l0,-0.49357l0.50631,0l0,0.49357l0.49357,0l0,0.50631l-0.49357,0l0,0.49357l-0.50631,0l0,-0.49357l-0.49357,0l0,-0.50631z" id="svg_20"/>
  <path fill="#007f00" stroke-width="2" d="m153.17052,224.32051l10.97132,-5.15768l10.97132,5.15768l-10.97132,5.15768l-10.97132,-5.15768z" id="svg_54" stroke="#007f00"/>
  <line fill="none" stroke-width="2" x1="163.68733" y1="229.57219" x2="163.68733" y2="139.87715" id="svg_55" stroke="#007f00"/>
  <path fill="none" stroke-width="2" opacity="undefined" d="m151.83599,224.34439l0,-85.82786" id="svg_59" stroke="#007f00"/>
  <path transform="rotate(11 184.843 79.6886)" fill="#7f0000" stroke-width="2" d="m169.21804,79.68863l15.62562,-10.79664l15.62562,10.79664l-15.62562,10.79664l-15.62562,-10.79664z" id="svg_62" stroke="#7f0000"/>
  <path transform="rotate(11 153.806 72.9156)" fill="#7f0000" stroke-width="2" d="m137.15777,72.9159l16.64818,-11.49153l16.64818,11.49153l-16.64818,11.49153l-16.64818,-11.49153z" id="svg_63" stroke="#7f0000"/>
  <path transform="rotate(11 139.694 58.6306)" fill="#bf0000" stroke-width="2" d="m123.04613,58.63018l16.64818,-11.49153l16.64818,11.49153l-16.64818,11.49153l-16.64818,-11.49153z" id="svg_61" stroke="#bf0000"/>
  <path transform="rotate(11 113.104 111.164)" fill="#bf0000" stroke-width="2" d="m96.45565,111.16351l16.64818,-11.49153l16.64818,11.49153l-16.64818,11.49153l-16.64818,-11.49153z" id="svg_67" stroke="#bf0000"/>
  <path transform="rotate(11 121.408 66.6306)" fill="#bf0000" stroke-width="2" d="m104.76041,66.63017l16.64818,-11.49153l16.64818,11.49153l-16.64818,11.49153l-16.64818,-11.49153z" id="svg_68" stroke="#bf0000"/>
  <path transform="rotate(11 145.104 117.716)" fill="#bf0000" stroke-width="2" d="m128.45565,117.71589l16.64818,-11.49153l16.64818,11.49153l-16.64818,11.49153l-16.64818,-11.49153z" id="svg_69" stroke="#bf0000"/>
  <path transform="rotate(11 159.219 132.002)" fill="#bf0000" stroke-width="2" d="m142.57082,132.0016l16.64818,-11.49153l16.64818,11.49153l-16.64818,11.49153l-16.64818,-11.49153z" id="svg_70" stroke="#bf0000"/>
  <path transform="rotate(11 190.552 56.6038)" fill="#bf0000" stroke-width="2" d="m173.90327,56.60406l16.64818,-11.49153l16.64818,11.49153l-16.64818,11.49153l-16.64818,-11.49153z" id="svg_72" stroke="#bf0000"/>
  <path transform="rotate(11 199.123 94.0586)" fill="#bf0000" stroke-width="2" d="m182.4747,94.05875l16.64818,-11.49153l16.64818,11.49153l-16.64818,11.49153l-16.64818,-11.49153z" id="svg_73" stroke="#bf0000"/>
  <path transform="rotate(11 217.408 86.0586)" fill="#bf0000" stroke-width="2" d="m200.76041,86.05875l16.64818,-11.49153l16.64818,11.49153l-16.64818,11.49153l-16.64818,-11.49153z" id="svg_74" stroke="#bf0000"/>
  <path transform="rotate(11 180.837 102.059)" fill="#bf0000" stroke-width="2" d="m164.18898,102.05875l16.64818,-11.49153l16.64818,11.49153l-16.64818,11.49153l-16.64818,-11.49153z" id="svg_75" stroke="#bf0000"/>
  <path transform="rotate(11 163.255 109.724)" fill="#bf0000" stroke-width="2" d="m146.60715,109.72371l16.64818,-11.49153l16.64818,11.49153l-16.64818,11.49153l-16.64818,-11.49153z" id="svg_77" stroke="#bf0000"/>
  <path transform="rotate(11 116.951 88.6876)" fill="#bf0000" stroke-width="2" d="m100.30331,88.68731l16.64818,-11.49153l16.64818,11.49153l-16.64818,11.49153l-16.64818,-11.49153z" id="svg_78" stroke="#bf0000"/>
  <path transform="rotate(11 131.256 102.992)" fill="#bf0000" stroke-width="2" d="m114.60795,102.99195l16.64818,-11.49153l16.64818,11.49153l-16.64818,11.49153l-16.64818,-11.49153z" id="svg_79" stroke="#bf0000"/>
  <path transform="rotate(11 172.051 64.7136)" fill="#bf0000" stroke-width="2" d="m155.40267,64.71379l16.64818,-11.49153l16.64818,11.49153l-16.64818,11.49153l-16.64818,-11.49153z" id="svg_81" stroke="#bf0000"/>
  <text stroke="#000" xml:space="preserve" text-anchor="start" font-family="'Yaldevi'" font-size="174" stroke-width="0" id="svg_2" y="204.62916" x="1487.7943" fill="#ffffff">-= Features =-</text>
  <line stroke="#ffffff" stroke-width="8" id="svg_4" y2="52.64858" x2="316.82519" y1="223.98402" x1="316.82519" fill="none"/>
 </g>
</svg>