<svg width="1268" height="1721" xmlns="http://www.w3.org/2000/svg">
 <title>cf logo</title>
 <defs>
  <linearGradient y2="0" x2="1" y1="0" x1="0" id="svg_7">
   <stop offset="0" stop-color="#b30000"/>
   <stop offset="1" stop-opacity="0.99609" stop-color="#00a1a1"/>
  </linearGradient>
 </defs>
 <g id="Layer_1">
  <title>Layer 1</title>
  <path fill="#000000" stroke="null" stroke-width="0" d="m-416.55399,-0.85178c-0.04014,0 -0.07267,0.03254 -0.07267,0.07267c0,0.04014 0.03254,0.07267 0.07267,0.07267c0.04014,0 0.07267,-0.03254 0.07267,-0.07267c0,-0.04014 -0.03254,-0.07267 -0.07267,-0.07267zm0,0.13034c-0.03181,0 -0.05767,-0.02587 -0.05767,-0.05767c0,-0.0318 0.02587,-0.05767 0.05767,-0.05767c0.03181,0 0.05767,0.02587 0.05767,0.05767c0,0.03181 -0.02587,0.05767 -0.05767,0.05767zm-0.00001,-0.11204c-0.00277,0 -0.005,0.00224 -0.005,0.005l0,0.04611l-0.03023,0.01322c-0.00253,0.00111 -0.00368,0.00406 -0.00257,0.00659c0.00082,0.00188 0.00265,0.003 0.00458,0.003c0.00067,0 0.00136,-0.00014 0.00201,-0.00043l0.03313,-0.01449c0.00003,-0.00001 0.00005,-0.00002 0.00007,-0.00003l0.00002,-0.00001c0.00008,-0.00003 0.00012,-0.0001 0.00019,-0.00013c0.00052,-0.00026 0.00101,-0.00057 0.0014,-0.00098c0.00017,-0.00017 0.00027,-0.00039 0.0004,-0.00059c0.00024,-0.00032 0.00051,-0.00064 0.00065,-0.00102c0.00012,-0.0003 0.00013,-0.00063 0.00019,-0.00095c0.00007,-0.00033 0.00019,-0.00061 0.00019,-0.00094l0,-0.04938c0,-0.00276 -0.00224,-0.005 -0.00501,-0.005l-0.00002,0.00003z" id="svg_15"/>
  <path fill="#00a1a1" stroke-width="0" d="m1025.77799,1446.99016c-28.96463,0 -52.44468,17.61104 -52.44468,39.33497c0,7.41932 2.77586,14.35868 7.55233,20.2804l-7.55233,16.55654l21.02643,-5.39298c8.76273,4.93003 19.61815,7.88803 31.41825,7.88803c28.96453,0 52.44532,-17.61114 52.44532,-39.33199s-23.48078,-39.33497 -52.44532,-39.33497zm3.25164,61.57325l-7.3758,0l0,-7.07666l7.3758,0l0,7.07666zm-0.35941,-12.28963l-6.65697,0l-0.65882,-30.2808l7.9153,0l-0.59952,30.2808l0,0l0.00001,0z" id="svg_20" stroke="null"/>
  <text fill="#191919" stroke-width="0" x="914.00002" y="1592.11265" id="svg_21" font-size="37" font-family="'Rasa'" text-anchor="start" xml:space="preserve">Quick support</text>
  <text fill="#666666" stroke-width="0" x="860.6674" y="1631.39462" id="svg_22" font-size="37" font-family="'Rasa'" text-anchor="start" xml:space="preserve">Usually taking &lt;1 hour</text>
  <path fill="#00a1a1" stroke="null" stroke-width="0" d="m668.04508,1488.53687c6.13263,-7.05089 7.36532,-16.67293 4.02918,-24.765l-12.31177,14.35722l-12.13637,-2.3596l-4.02137,-11.6908l12.28063,-14.32387c-8.44734,-2.12523 -17.75373,0.44049 -23.85934,7.46348c-6.43913,7.40395 -7.4929,17.65697 -3.50741,25.97557l-32.09172,36.90411c-3.41472,3.92355 -2.99872,9.8744 0.92486,13.28779c3.92358,3.41098 9.87323,2.99872 13.28677,-0.92488l32.05413,-36.8677c8.82354,2.84397 18.88351,0.38131 25.35243,-7.0563l0,0l-0.00002,-0.00002z" id="svg_23"/>
  <text fill="#191919" stroke-width="0" x="517.07287" y="1591.02992" id="svg_24" font-size="37" font-family="'Rasa'" text-anchor="start" xml:space="preserve">Regular updates</text>
  <text fill="#666666" stroke-width="0" x="458.13184" y="1632.3633" id="svg_25" font-size="37" font-family="'Rasa'" text-anchor="start" xml:space="preserve">Bug fixes, additions, etc.</text>
  <path fill="#00a1a1" stroke="null" stroke-width="0" d="m660.37727,535.7019l-9.37983,-5.89549c-2.36656,-1.48599 -5.48492,-0.77078 -6.97609,1.59627l-3.69712,5.88449l17.94401,11.27023l3.70004,-5.88176c1.48552,-2.36987 0.77654,-5.49107 -1.591,-6.97375l0,0l-0.00001,0.00001zm-51.98448,52.42459l17.94499,11.27012l29.24736,-46.55944l-17.95353,-11.27306l-29.23882,46.56238l0,0zm-2.74109,14.31911l-0.39634,10.58583l9.36544,-4.95369l8.70316,-4.59524l-17.31211,-10.87952l-0.36015,9.84262l0,0l0,0z" id="svg_26"/>
  <text fill="#191919" stroke-width="0" x="486.39577" y="357.69814" id="svg_27" font-size="37" font-family="'Rasa'" text-anchor="start" xml:space="preserve">Fast and lightweight</text>
  <text fill="#666666" stroke-width="0" x="471.11004" y="715.03147" id="svg_28" font-size="37" font-family="'Rasa'" text-anchor="start" xml:space="preserve" stroke="null">Change the chances of</text>
  <path fill="#00a1a1" stroke-width="0" d="m1045.19847,538.36702c-4.86521,-4.72573 -10.11261,-8.51133 -14.41709,-9.02742c-0.23433,-0.03348 -0.47704,-0.053 -0.73369,-0.05858l-28.32925,0c-0.45193,0 -0.89828,0.17575 -1.2163,0.50214c-0.31523,0.31802 -0.50214,0.76437 -0.50214,1.21909l0,71.8344c0,0.45193 0.17575,0.88433 0.50214,1.21351c0.32639,0.3236 0.756,0.49935 1.2163,0.49935l51.22978,0c0.45193,0 0.88433,-0.17296 1.21072,-0.49935c0.32639,-0.32639 0.50772,-0.75879 0.50772,-1.21351l0,-47.80126c-0.10043,-5.54868 -4.44676,-11.59951 -9.46819,-16.66837zm6.02572,62.74282l-47.79289,0l0,-68.39751l26.61918,0l0,0.00558c1.16051,-0.06974 2.16201,1.07682 2.92917,3.69912c0.69742,2.49677 0.87317,5.75233 0.87038,8.00919c0.00558,1.65428 -0.07532,2.76458 -0.07532,2.76458l-0.13669,1.81887l1.83003,0.01953c0.00837,0 4.22916,0.05021 8.36906,0.99034c3.97809,0.85922 7.08859,2.57209 7.37872,4.51092c0.01116,0.17296 0.01395,0.34592 0.01116,0.50772l0,46.07166l-0.00279,0l-0.00001,0z" id="svg_29"/>
  <path fill="#5656ff" stroke-width="0" d="m-275.1682,439.98419c-0.00872,-0.00847 -0.01813,-0.01526 -0.02584,-0.01618c-0.00042,-0.00006 -0.00086,-0.0001 -0.00132,-0.00011l-0.05078,0c-0.00081,0 -0.00161,0.00032 -0.00218,0.0009c-0.00057,0.00057 -0.0009,0.00137 -0.0009,0.00219l0,0.12875c0,0.00081 0.00032,0.00159 0.0009,0.00218c0.00059,0.00058 0.00136,0.0009 0.00218,0.0009l0.09182,0c0.00081,0 0.00159,-0.00031 0.00217,-0.0009c0.00059,-0.00059 0.00091,-0.00136 0.00091,-0.00218l0,-0.08568c-0.00018,-0.00995 -0.00797,-0.02079 -0.01697,-0.02988l0.00001,0.00001zm0.0108,0.11246l-0.08566,0l0,-0.12259l0.04771,0l0,0.00001c0.00208,-0.00013 0.00388,0.00193 0.00525,0.00663c0.00125,0.00448 0.00157,0.01031 0.00156,0.01436c0.00001,0.00297 -0.00014,0.00496 -0.00014,0.00496l-0.00025,0.00326l0.00328,0.00004c0.00002,0 0.00758,0.00009 0.015,0.00178c0.00713,0.00154 0.01271,0.00461 0.01323,0.00809c0.00002,0.00031 0.00003,0.00062 0.00002,0.00091l0,0.08258l-0.00001,0l0.00001,-0.00003z" id="svg_30"/>
  <text fill="#191919" stroke-width="0" x="892.57015" y="675.33333" id="svg_31" font-size="37" font-family="'Rasa'" text-anchor="start" xml:space="preserve">Schematic support</text>
  <text style="cursor: move;" fill="#666666" stroke-width="0" x="835.00072" y="713.33333" id="svg_32" font-size="37" font-family="'Rasa'" text-anchor="start" xml:space="preserve" stroke="null">Contains static structures,</text>
  <text style="cursor: move;" fill="#666666" stroke-width="0" x="879.33405" y="753.33333" id="svg_33" font-size="37" font-family="'Rasa'" text-anchor="start" xml:space="preserve" stroke="null">adding more variety</text>
  <text fill="#666666" stroke-width="0" x="921.66739" y="793.33333" id="svg_34" font-size="37" font-family="'Rasa'" text-anchor="start" xml:space="preserve" stroke="null">to the parkour</text>
  <text fill="#191919" stroke-width="0" x="518.70473" y="675.36482" id="svg_43" font-size="37" font-family="'Rasa'" text-anchor="start" xml:space="preserve">Change chances</text>
  <path fill="#00a1a1" stroke="null" stroke-width="0" d="m625.37569,232.03928l16.25465,22.51868l-6.70245,2.65756l20.4677,19.29357l-6.69945,3.2221l25.30236,32.3081l-42.91731,-24.75883l8.18588,-3.43831l-26.66567,-15.85827l9.5552,-4.90072l-28.1551,-16.63601l31.3742,-14.40787l-0.00001,0z" id="svg_45"/>
  <path fill="#00a1a1" stroke="null" stroke-width="0" d="m235.81408,266.32929l-8.28349,0l0,-10.62342c0,0 0,0 0,-0.00375c0,-8.95847 7.29352,-16.24824 16.25199,-16.24824c8.96597,0 16.25574,7.28977 16.25574,16.24824c0,0 0,0 0,0l0,10.62717l7.49977,0l0,-10.62717l-0.00375,0c-0.00375,-13.11709 -10.63467,-23.74801 -23.75176,-23.74801s-23.75176,10.63467 -23.75176,23.75176l0,10.62342l-48.90222,0l0,45.62482l64.68548,0l0,-45.62482z" id="svg_48"/>
  <text fill="#191919" stroke="null" stroke-width="0" x="128.12497" y="358.16667" id="svg_49" font-size="37" font-family="'Rasa'" text-anchor="start" xml:space="preserve">Easy to use</text>
  <text fill="#666666" stroke-width="0" x="74.46427" y="394.69813" id="svg_50" font-size="37" font-family="'Rasa'" text-anchor="start" xml:space="preserve" stroke="null">And it looks good :)</text>
  <path fill="#00a1a1" stroke="null" stroke-width="0" d="m1000,304.02477l27.99456,-27.9944l-27.99456,-27.9946l16.00031,-15.99858l43.99826,43.99318l-43.99826,44.00683" id="svg_51"/>
  <text fill="#191919" stroke="null" stroke-width="0" x="831.87151" y="357.94444" id="svg_54" font-size="37" font-family="'Rasa'" text-anchor="start" xml:space="preserve">Change whatever you want</text>
  <rect fill="url(#svg_7)" stroke="null" stroke-width="0" x="72.66668" y="43.5" width="1122.66667" height="100" id="svg_56"/>
  <text xml:space="preserve" text-anchor="start" font-family="'Rasa'" font-size="82" stroke-width="0" id="svg_67" y="115.845" x="496.81246" fill="#ffffff" font-weight="normal">Features</text>
  <text fill="#666666" stroke-width="0" x="882.35318" y="394.03147" id="svg_8" font-size="37" font-family="'Rasa'" text-anchor="start" xml:space="preserve" stroke="null">Add your own items,</text>
  <text fill="#666666" stroke-width="0" x="924.01984" y="433.03147" id="svg_9" font-size="37" font-family="'Rasa'" text-anchor="start" xml:space="preserve" stroke="null">languages, etc.</text>
  <path fill="#00a1a1" stroke-width="0" d="m140.25348,1464.15327l0,0l0,-0.0098l0,0.0098zm0.0049,-0.0098l28.26412,28.27391l-28.26901,28.26412l10.39273,10.39763l38.66174,-38.66664l-38.66174,-38.66664l-10.38783,10.39763l-0.00001,-0.00001zm50.08297,66.2304l70.61866,0l0,-14.68794l-70.61866,0l0,14.68794zm21.23115,-30.61007l49.38751,0l0,-14.68794l-49.38751,0l0,14.68794zm-21.23115,-45.30291l0,14.69773l70.61866,0l0,-14.69773l-70.61866,0z" id="svg_10"/>
  <text fill="#191919" stroke-width="0" x="115.58926" y="1590.02999" id="svg_12" font-size="37" font-family="'Rasa'" text-anchor="start" xml:space="preserve">Developer API</text>
  <text fill="#666666" stroke-width="0" x="42.08329" y="1632.3633" id="svg_13" font-size="37" font-family="'Rasa'" text-anchor="start" xml:space="preserve">Listen to events and more</text>
  <path id="svg_14" d="m149.48723,562.8928l32.96994,0l10.18796,-31.3213l10.18797,31.3213l32.96993,0l-26.67319,19.35741l10.18849,31.3213l-26.6732,-19.35794l-26.6732,19.35794l10.18849,-31.3213l-26.6732,-19.35741z" stroke-width="0" fill="#00a1a1"/>
  <text fill="#191919" stroke-width="0" x="140.81148" y="675" id="svg_16" font-size="37" font-family="'Rasa'" text-anchor="start" xml:space="preserve">Variety</text>
  <text fill="#666666" stroke-width="0" x="15.57539" y="713" id="svg_18" font-size="37" font-family="'Rasa'" text-anchor="start" xml:space="preserve" stroke="null">Contains multiple jumps:</text>
  <text fill="#666666" stroke-width="0" x="146.46428" y="753" id="svg_19" font-size="37" font-family="'Rasa'" text-anchor="start" xml:space="preserve" stroke="null">Normal</text>
  <text fill="#666666" stroke-width="0" x="72.01983" y="792.03147" id="svg_35" font-size="37" font-family="'Rasa'" text-anchor="start" xml:space="preserve" stroke="null">Special (ice, fence)</text>
  <text transform="matrix(1 0 0 1 0 0)" fill="#666666" stroke-width="0" x="505.12837" y="751.03147" id="svg_37" font-size="37" font-family="'Rasa'" text-anchor="start" xml:space="preserve" stroke="null">each type of jump</text>
  <path stroke="null" id="svg_44" d="m225.51681,917.04803c0.06609,-0.67826 0.10435,-1.36348 0.10435,-2.05565c0,-12.00696 -9.73218,-21.73914 -21.73914,-21.73914c-9.31826,0 -17.24522,5.87478 -20.3374,14.11827c-2.0487,-2.24696 -4.97044,-3.68348 -8.25044,-3.68348c-6.18435,0 -11.19653,5.01218 -11.19653,11.19653c0,0.73044 0.08,1.44348 0.21565,2.13217c-8.25044,1.36 -14.56348,8.47305 -14.56348,17.10609c0,9.60696 7.78783,17.39131 17.39131,17.39131l55.21741,0c9.60696,0 17.39131,-7.78435 17.39131,-17.39131c0.00348,-8.52522 -6.13913,-15.58609 -14.23305,-17.07479z" stroke-width="0" fill="#00a1a1"/>
  <text fill="#191919" stroke-width="0" x="94.1448" y="1005.23842" id="svg_46" font-size="37" font-family="'Rasa'" text-anchor="start" xml:space="preserve">MySQL or local</text>
  <text style="cursor: move;" fill="#666666" stroke-width="0" x="16.6865" y="1042.12731" id="svg_47" font-size="37" font-family="'Rasa'" text-anchor="start" xml:space="preserve" stroke="null">Choose what storage type</text>
  <text fill="#666666" stroke-width="0" x="134.24205" y="1081.0162" id="svg_52" font-size="37" font-family="'Rasa'" text-anchor="start" xml:space="preserve" stroke="null">you want</text>
  <path id="svg_55" d="m634,893.27598c-27.17107,0 -48.60979,27.77599 -48.60979,27.77599s21.43872,27.7796 48.60979,27.7796c20.77979,0 48.60979,-27.7796 48.60979,-27.7796s-27.83001,-27.77599 -48.60979,-27.77599zm0,45.08468c-9.53832,0 -17.30869,-7.76676 -17.30869,-17.30869s7.77037,-17.30869 17.30869,-17.30869s17.30869,7.77037 17.30869,17.30869s-7.77037,17.30869 -17.30869,17.30869zm0,-27.41232c-5.57752,0 -10.10364,4.52251 -10.10364,10.10364c0,5.58112 4.52251,10.10364 10.10364,10.10364c5.58112,0 10.10364,-4.52251 10.10364,-10.10364c0,-5.57752 -4.52251,-10.10364 -10.10364,-10.10364z" stroke-width="0" fill="#00a1a1"/>
  <text transform="matrix(1 0 0 1 0 0)" fill="#191919" stroke-width="0" x="473.1839" y="1005.23842" id="svg_57" font-size="37" font-family="'Rasa'" text-anchor="start" xml:space="preserve">Spectate other players</text>
  <path id="svg_59" d="m1032.77777,884.34228c-18.10287,0 -32.77777,14.67489 -32.77777,32.77777c0,18.10287 14.67489,32.77777 32.77777,32.77777c18.10287,0 32.77777,-14.67489 32.77777,-32.77777c0,-18.10287 -14.67489,-32.77777 -32.77777,-32.77777zm18.9125,30.45035c-3.27236,3.76401 -8.35795,5.0089 -12.82108,3.57682l-16.21072,18.64188c-1.72752,1.98462 -4.73376,2.18759 -6.71838,0.46233s-2.19436,-4.73376 -0.46909,-6.71838l16.23327,-18.66217c-2.01394,-4.20604 -1.4817,-9.39085 1.77488,-13.13456c3.08292,-3.55201 7.78737,-4.85104 12.06106,-3.77528l-6.21095,7.24385l2.03198,5.911l6.13878,1.19303l6.22674,-7.2619c1.68693,4.09102 1.06673,8.95784 -2.03649,12.52339z" stroke-width="0" fill="#00a1a1"/>
  <text fill="#191919" stroke-width="0" x="833.18404" y="1005.23842" id="svg_60" font-size="37" font-family="'Rasa'" text-anchor="start" xml:space="preserve">Features inventory recovery</text>
  <text fill="#666666" stroke-width="0" x="882.77848" y="1043.33343" id="svg_61" font-size="37" font-family="'Rasa'" text-anchor="start" xml:space="preserve" stroke="null">If your server crashes</text>
  <text fill="#666666" stroke-width="0" x="840.55625" y="1081.11122" id="svg_62" font-size="37" font-family="'Rasa'" text-anchor="start" xml:space="preserve" stroke="null">use /witp recoverinventory</text>
  <path id="svg_64" d="m662.44053,1201.28139c-2.83624,-15.53923 -16.40753,-27.32284 -32.75797,-27.32284l0,12.01797c11.76859,0.01803 21.28682,9.54226 21.31386,21.31386c-0.02704,11.76859 -9.54527,21.28682 -21.31386,21.31086l0,12.02397c16.35044,-0.01202 29.92173,-11.79563 32.75797,-27.32885l14.09106,0l0,-12.01496l-14.09106,0zm-14.07604,6.00898c0,-10.32043 -8.3645,-18.68493 -18.68493,-18.68493c-8.21127,0 -15.17268,5.30593 -17.67843,12.67294l-20.53269,0l0,12.02097l20.53269,0c2.50274,7.36701 9.46415,12.67595 17.67843,12.67595c10.32043,0 18.68493,-8.36751 18.68493,-18.68493z" stroke-width="0" stroke="null" fill="#00a1a1"/>
  <text transform="matrix(1 0 0 1 0 0)" fill="#191919" stroke-width="0" x="467.08149" y="1286.34965" id="svg_66" font-size="37" font-family="'Rasa'" text-anchor="start" xml:space="preserve">Supports other plugins</text>
  <text transform="matrix(1 0 0 1 0 0)" fill="#666666" stroke-width="0" x="477.177" y="1325.55577" id="svg_68" font-size="37" font-family="'Rasa'" text-anchor="start" xml:space="preserve" stroke="null">Multiverse, Vault, etc.</text>
 </g>
</svg>