<svg width="500" height="500" xmlns="http://www.w3.org/2000/svg">
 <title>cf logo</title>
 <defs>
  <linearGradient y2="1" x2="1" y1="0" x1="0" id="svg_9">
   <stop offset="0" stop-opacity="0.99609" stop-color="#00a1a1"/>
   <stop offset="1" stop-opacity="0.99609" stop-color="#b30000"/>
   <stop offset="NaN" stop-opacity="0" stop-color="0"/>
   <stop offset="NaN" stop-opacity="0" stop-color="0"/>
  </linearGradient>
  <linearGradient spreadMethod="pad" y2="0" x2="1" y1="1" x1="0" id="svg_13">
   <stop offset="0" stop-opacity="0.99609" stop-color="#00a1a1"/>
   <stop offset="1" stop-opacity="0.99609" stop-color="#b30000"/>
   <stop offset="NaN" stop-opacity="0" stop-color="0"/>
   <stop offset="NaN" stop-opacity="0" stop-color="0"/>
  </linearGradient>
  <linearGradient y2="0" x2="0" y1="1" x1="1" id="svg_35">
   <stop offset="0" stop-opacity="0.99609" stop-color="#00a1a1"/>
   <stop offset="1" stop-opacity="0.99609" stop-color="#b30000"/>
   <stop offset="NaN" stop-opacity="0" stop-color="0"/>
   <stop offset="NaN" stop-opacity="0" stop-color="0"/>
  </linearGradient>
  <linearGradient spreadMethod="pad" y2="1" x2="0" y1="0.84064" x1="0.60156" id="svg_36">
   <stop offset="0" stop-opacity="0.99609" stop-color="#00a1a1"/>
   <stop offset="1" stop-opacity="0.99609" stop-color="#b30000"/>
   <stop offset="NaN" stop-opacity="0" stop-color="0"/>
   <stop offset="NaN" stop-opacity="0" stop-color="0"/>
  </linearGradient>
 </defs>
 <g id="Layer_1">
  <title>Layer 1</title>
  <rect id="svg_37" height="523.12492" width="539.37492" y="-15.00004" x="-17.49996" stroke-width="0" stroke="null" fill="#ffffff"/>
  <rect id="svg_3" height="231" width="55" y="194.5" x="102.5" stroke-width="0" stroke="null" fill="url(#svg_9)"/>
  <rect stroke="null" id="svg_6" height="55" width="55" y="74.5" x="102.5" stroke-width="0" fill="url(#svg_13)"/>
  <rect stroke="null" id="svg_14" height="180.20582" width="203.94738" y="77.38546" x="252.04356" stroke-width="0" fill="url(#svg_36)"/>
  <path transform="rotate(-180 129.913 221.408)" stroke="null" id="svg_17" d="m100.70238,250.6182l0,-58.42106l58.42106,58.42106l-58.42106,0z" stroke-width="0" fill="#ffffff"/>
  <path transform="rotate(-180 395.423 141.72)" stroke="null" id="svg_22" d="m321.52466,215.61819l0,-147.79603l147.79603,147.79603l-147.79603,0z" stroke-width="0" fill="#ffffff"/>
  <path stroke="null" id="svg_28" d="m308,212.95331l0,-88.88898l88.88898,88.88898l-88.88898,0z" stroke-width="0" fill="#ffffff"/>
  <rect stroke="null" id="svg_34" height="169.12501" width="55" y="256.99999" x="251.87498" stroke-width="0" fill="url(#svg_35)"/>
 </g>
</svg>